<svg width="1024" height="768" viewBox="0 0 1024 768" fill="none" xmlns="http://www.w3.org/2000/svg">
	<rect width="1024" height="768" fill="#FDD13A"/>
	<path d="M498.334 375.624H473.682V416.508C473.682 420.497 473.749 423.356 473.882 425.084C474.15 426.68 474.884 428.076 476.087 429.272C477.423 430.469 479.427 431.067 482.1 431.067L497.332 430.669L498.534 452.008C489.582 454.003 482.768 455 478.091 455C466.066 455 457.848 452.341 453.439 447.022C449.03 441.571 446.825 431.599 446.825 417.107V375.624H435V352.888H446.825V325.166H473.682V352.888H498.334V375.624Z" fill="#272838"/>
	<path d="M574.948 352.888H601.805V452.607H575.148V447.022C565.528 452.341 557.177 455 550.095 455C536.199 455 526.846 451.211 522.036 443.632C517.226 435.92 514.82 423.09 514.82 405.14V352.888H541.677V405.539C541.677 415.378 542.479 422.093 544.082 425.683C545.686 429.272 549.561 431.067 555.707 431.067C561.586 431.067 567.131 430.137 572.342 428.275L574.948 427.478V352.888Z" fill="#272838"/>
	<path d="M675.106 350.494C689.136 350.494 699.358 354.35 705.771 362.062C712.319 369.64 715.592 383.269 715.592 402.947C715.592 422.625 711.851 436.253 704.368 443.831C696.886 451.277 683.992 455 665.687 455C659.941 455 649.452 454.335 634.22 453.006L626.604 452.208V313H653.461V355.879C662.012 352.289 669.227 350.494 675.106 350.494ZM665.687 431.067C674.639 431.067 680.652 428.94 683.725 424.685C686.798 420.298 688.334 412.52 688.334 401.351C688.334 383.402 682.723 374.427 671.499 374.427C666.154 374.427 661.077 375.092 656.267 376.421L653.461 377.02V430.27C659.607 430.802 663.682 431.067 665.687 431.067Z" fill="#272838"/>
	<path d="M812.386 384V425.483C812.653 428.674 813.188 430.934 813.989 432.264C814.791 433.461 816.461 434.325 819 434.857L818.198 455C811.384 455 805.906 454.535 801.764 453.604C797.755 452.673 793.68 450.812 789.538 448.02C779.917 452.673 770.096 455 760.075 455C739.365 455 729.01 444.097 729.01 422.292C729.01 411.655 731.882 404.143 737.628 399.756C743.373 395.235 752.192 392.576 764.084 391.778L785.529 390.183V384C785.529 379.878 784.594 377.086 782.723 375.624C780.853 374.028 777.846 373.23 773.704 373.23L736.024 374.826L735.223 356.278C749.52 352.422 763.082 350.494 775.909 350.494C788.87 350.494 798.156 353.154 803.768 358.472C809.513 363.79 812.386 372.3 812.386 384ZM767.291 410.326C759.808 410.991 756.067 414.979 756.067 422.292C756.067 429.605 759.34 433.261 765.888 433.261C770.965 433.261 776.51 432.463 782.523 430.868L785.529 430.07V408.73L767.291 410.326Z" fill="#272838"/>
	<path d="M237 294C219.327 294 205 308.327 205 326V442C205 459.673 219.327 474 237 474H353C370.673 474 385 459.673 385 442V326C385 308.327 370.673 294 353 294H237Z" fill="#272838"/>
	<path fill-rule="evenodd" clip-rule="evenodd" d="M298.602 322.237C298.918 321.92 299.433 321.921 299.75 322.238L347.761 370.19C348.079 370.507 348.08 371.021 347.763 371.337L344.608 374.487C344.292 374.804 343.778 374.803 343.46 374.486L343.172 374.199C333.646 364.684 319.503 363.382 311.585 371.291L304.186 378.681C310.044 377.527 316.406 379.257 321.004 383.849C328.268 391.104 328.379 402.756 321.252 409.874L296.734 434.362C286.519 444.564 269.936 444.543 259.695 434.315C249.453 424.087 249.432 407.524 259.648 397.321L287.177 369.826L279.846 362.504L277.408 364.939C277.092 365.255 276.578 365.255 276.26 364.937L273.098 361.779C272.78 361.462 272.779 360.948 273.096 360.632L282.273 351.467C282.589 351.15 283.104 351.151 283.421 351.468L286.583 354.627C286.901 354.944 286.902 355.457 286.585 355.774L284.147 358.208L291.478 365.53L298.648 358.37C306.566 350.461 305.263 336.336 295.736 326.822L295.449 326.534C295.131 326.217 295.131 325.704 295.447 325.387L298.602 322.237ZM289.104 417.289L297.144 425.32C295.341 426.973 293.207 428.067 290.966 428.601C286.385 429.695 281.353 428.451 277.772 424.874C274.19 421.297 272.946 416.272 274.04 411.696C274.62 409.273 275.855 406.976 277.747 405.087L297.103 385.755C302.567 380.297 311.437 380.309 316.915 385.78C322.393 391.251 322.404 400.11 316.94 405.567L308.89 397.527C308.573 397.21 308.059 397.209 307.742 397.526L304.587 400.676C304.271 400.993 304.271 401.506 304.589 401.823L312.639 409.863L309.197 413.3L301.148 405.26C300.83 404.943 300.316 404.942 299.999 405.259L296.845 408.409C296.528 408.726 296.529 409.239 296.846 409.556L304.896 417.596L301.455 421.033L293.405 412.993C293.088 412.676 292.573 412.675 292.257 412.992L289.102 416.142C288.785 416.459 288.786 416.972 289.104 417.289Z" fill="white"/>
</svg>
